HIERARCHY
ROOT Hips
{
	OFFSET 0.000000 88.474243 0.000000
	CHANNELS 6 Xposition Yposition Zposition Zrotation Yrotation Xrotation 
	JOINT Hips_Spine
	{
		OFFSET 0.000000 0.000000 0.000000
		CHANNELS 3 Zrotation Yrotation Xrotation
		JOINT Spine
		{
			OFFSET 0.005100 8.711998 -0.691000
			CHANNELS 3 Zrotation Yrotation Xrotation
			JOINT Spine1
			{
				OFFSET -0.009200 8.660301 -1.275000
				CHANNELS 3 Zrotation Yrotation Xrotation
				JOINT Spine2
				{
					OFFSET 0.006300 9.852501 -1.857000
					CHANNELS 3 Zrotation Yrotation Xrotation
					JOINT Spine2_Neck
					{
						OFFSET 0.000000 0.000000 0.000000
						CHANNELS 3 Zrotation Yrotation Xrotation
						JOINT Neck
						{
							OFFSET 0.016300 11.420799 -0.263300
							CHANNELS 3 Zrotation Yrotation Xrotation
							End Site #name: Head
							{
								OFFSET -0.019200 9.262405 2.362500
							}
						}
					}
					JOINT Spine2_LeftShoulder
					{
						OFFSET 0.000000 0.000000 0.000000
						CHANNELS 3 Zrotation Yrotation Xrotation
						JOINT LeftShoulder
						{
							OFFSET 5.616900 6.732201 -0.345700
							CHANNELS 3 Zrotation Yrotation Xrotation
							JOINT LeftArm
							{
								OFFSET 10.664888 -0.183372 -2.440700
								CHANNELS 3 Zrotation Yrotation Xrotation
								JOINT LeftForeArm
								{
									OFFSET 27.459126 0.000000 0.000000
									CHANNELS 3 Zrotation Yrotation Xrotation
									End Site #name: LeftHand
									{
										OFFSET 21.306858 0.000000 0.000000
									}
								}
							}
						}
					}
					JOINT Spine2_RightShoulder
					{
						OFFSET 0.000000 0.000000 0.000000
						CHANNELS 3 Zrotation Yrotation Xrotation
						JOINT RightShoulder
						{
							OFFSET -5.580300 6.737503 -0.344400
							CHANNELS 3 Zrotation Yrotation Xrotation
							JOINT RightArm
							{
								OFFSET -10.679335 -0.188484 -2.383900
								CHANNELS 3 Zrotation Yrotation Xrotation
								JOINT RightForeArm
								{
									OFFSET -27.503529 0.000000 0.000000
									CHANNELS 3 Zrotation Yrotation Xrotation
									End Site #name: RightHand
									{
										OFFSET -21.306808 0.000000 0.000000
									}
								}
							}
						}
					}
				}
			}
		}
	}
	JOINT Hips_LeftUpLeg
	{
		OFFSET 0.000000 0.000000 0.000000
		CHANNELS 3 Zrotation Yrotation Xrotation
		JOINT LeftUpLeg
		{
			OFFSET 6.857700 -6.739601 0.312100
			CHANNELS 3 Zrotation Yrotation Xrotation
			JOINT LeftLeg
			{
				OFFSET -0.367590 -34.731552 -4.572400
				CHANNELS 3 Zrotation Yrotation Xrotation
				End Site #name: LeftFoot
				{
					OFFSET 0.367590 -34.656704 -6.067400
				}
			}
		}
	}
	JOINT Hips_RightUpLeg
	{
		OFFSET 0.000000 0.000000 0.000000
		CHANNELS 3 Zrotation Yrotation Xrotation
		JOINT RightUpLeg
		{
			OFFSET -6.876100 -6.733299 0.301000
			CHANNELS 3 Zrotation Yrotation Xrotation
			JOINT RightLeg
			{
				OFFSET 0.347353 -34.795158 -4.515900
				CHANNELS 3 Zrotation Yrotation Xrotation
				End Site #name: RightFoot
				{
					OFFSET -0.347353 -34.589367 -6.070300
				}
			}
		}
	}
}
MOTION
Frames: 7
Frame Time: 0.041667
2.963596 2.020716 10.317255 -1.373275 20.762268 -6.710974 -0.000000 0.000000 0.000000 0.540753 2.157152 4.281662 -0.120686 -0.469604 4.914489 0.000000 0.000000 0.000000 -0.434717 -1.076815 1.812342 -0.369601 1.292564 3.201461 -1.500518 -1.479977 8.101280 -10.914893 -8.245430 -1.201019 -58.574447 5.407867 18.244851 -162.366413 -66.987128 167.989877 -1.649470 -1.075713 7.555559 9.176382 4.429214 1.273525 72.396452 -2.103230 15.833813 168.254068 82.058759 157.060057 0.000000 -0.000000 0.000000 -1.823520 6.241034 -10.843894 9.544137 8.085340 27.883016 0.000000 -0.000000 0.000000 13.090850 -4.711364 -18.102948 1.197235 -2.534815 27.816879 
2.924957 2.128856 11.321469 -0.569938 20.796791 -6.370949 -0.000000 0.000000 0.000000 0.528622 2.380836 4.389367 -0.110357 -0.385639 4.767433 0.000000 0.000000 0.000000 -0.791953 -1.154907 2.008279 -1.080541 1.176396 3.682899 -1.539660 -1.357789 8.191396 -10.634706 -7.395730 -1.060435 -58.837277 6.486998 18.010463 -161.636595 -66.795542 167.523728 -1.709637 -0.777936 7.304741 8.315961 3.856745 1.066352 74.822064 1.543754 17.884578 174.480366 76.431763 165.041362 0.000000 -0.000000 0.000000 -3.037769 6.371309 -12.854756 9.345008 8.072024 28.272538 0.000000 -0.000000 0.000000 13.438570 -5.839020 -18.036294 1.192557 -2.530547 29.349088 
2.904183 2.209459 12.319891 -0.179118 20.524006 -5.909315 -0.000000 0.000000 0.000000 0.480921 2.606030 4.454867 -0.108238 -0.305834 4.504614 0.000000 0.000000 0.000000 -1.017793 -1.262543 2.559753 -1.531286 1.010690 4.649017 -1.636295 -1.314009 8.212091 -10.219558 -6.785915 -0.899007 -59.326217 7.008052 18.003319 -160.982758 -66.780323 166.962613 -1.712282 -0.616328 7.093381 7.636732 2.720070 0.948002 76.998779 3.747304 19.391978 175.993264 69.816781 168.368672 0.000000 -0.000000 0.000000 -4.270073 6.518612 -15.859434 9.210531 8.163218 28.851412 0.000000 -0.000000 0.000000 13.244688 -6.572243 -17.458460 1.053865 -2.469148 31.183838 
2.921608 2.224767 13.366361 -0.144348 19.459024 -5.262833 -0.000000 0.000000 0.000000 0.372600 2.802379 4.467566 -0.102664 -0.240026 4.098191 0.000000 0.000000 0.000000 -1.140650 -1.413338 3.442320 -1.752641 0.774537 6.027902 -1.778868 -1.368439 8.143167 -9.628573 -6.455339 -0.778153 -59.848349 6.766560 18.172838 -160.375023 -67.094254 166.287425 -1.704674 -0.595555 6.946298 7.038054 1.226751 0.947882 78.685316 4.651860 20.294762 175.294058 65.143177 169.393178 0.000000 -0.000000 0.000000 -5.400198 6.488665 -19.538531 9.252252 8.471325 29.784887 0.000000 -0.000000 0.000000 12.843149 -6.987626 -16.587571 0.900975 -2.240772 33.582452 
2.975687 2.184452 14.535786 -0.516562 17.237245 -4.462267 -0.000000 0.000000 0.000000 0.211807 3.006184 4.438459 -0.105028 -0.176189 3.618017 0.000000 0.000000 0.000000 -1.159046 -1.607565 4.684185 -1.778772 0.460891 7.828062 -1.961945 -1.515350 8.053570 -9.060583 -6.400586 -0.672390 -60.450345 5.792101 18.553863 -159.697280 -67.805944 165.393894 -1.706449 -0.698133 6.910022 6.534954 -0.265886 1.098953 79.825862 4.734929 20.669200 173.433767 63.703172 168.922072 0.000000 -0.000000 0.000000 -6.275045 6.360964 -23.833911 9.377237 8.851290 30.805660 0.000000 -0.000000 0.000000 11.661445 -7.044880 -15.678224 0.787887 -1.735732 35.968594 
3.036084 2.125069 15.856138 -0.584417 14.691859 -3.632006 -0.000000 0.000000 0.000000 0.011044 3.116697 4.312500 -0.129998 -0.166111 3.124406 0.000000 0.000000 0.000000 -1.212635 -1.625066 5.786555 -1.771275 0.537522 9.306190 -2.142895 -1.540483 7.985291 -8.607289 -5.962722 -0.646085 -61.161879 5.981656 18.278688 -158.423435 -68.928590 163.908965 -1.729935 -0.777378 6.910247 6.062922 -1.037216 1.192018 80.366985 4.997941 20.929173 171.344115 64.060307 167.602597 0.000000 -0.000000 0.000000 -5.948280 6.642843 -26.876149 9.578454 9.502200 31.721132 0.000000 -0.000000 0.000000 10.274888 -6.569273 -14.423584 0.656391 -1.395705 38.135989 
3.068283 2.078759 17.328320 -0.162428 11.633741 -2.705742 -0.000000 0.000000 0.000000 -0.166800 3.163120 3.965738 -0.185249 -0.193820 2.625425 0.000000 0.000000 0.000000 -1.299157 -1.460042 6.777171 -1.725187 0.960248 10.468485 -2.322741 -1.445661 7.930339 -8.290409 -5.152183 -0.684860 -61.985771 7.271560 17.303944 -156.538098 -70.277124 161.817958 -1.764183 -0.841493 6.957515 5.617850 -1.260490 1.266217 80.287629 5.099199 21.143435 168.365273 67.319845 164.996551 0.000000 -0.000000 0.000000 -4.851292 7.253740 -29.140738 9.855114 10.140522 32.669825 0.000000 -0.000000 0.000000 8.843685 -5.920823 -13.476951 0.391652 -1.277757 39.829817 
